<svg xmlns="http://www.w3.org/2000/svg" xmlns:xlink="http://www.w3.org/1999/xlink" version="1.1" x="0px" y="0px" viewBox="0 0 100 125" style="enable-background:new 0 0 100 100;" xml:space="preserve"><style type="text/css">
	.st0{display:none;}
	.st1{fill:none;stroke:#000000;stroke-linecap:round;stroke-linejoin:round;stroke-miterlimit:10;}
	.st2{fill:none;stroke:#000000;stroke-linecap:round;stroke-linejoin:round;}
	.st3{fill:none;stroke:#000000;stroke-linecap:round;stroke-linejoin:round;stroke-dasharray:1.9915,1.9915;}
</style><g><path class="st1" d="M34.5,54.3l3,0.9c2,0.6,4.2,0.9,6.3,0.9h27.6c0.4,0,0.8-0.2,1.1-0.5l0.3-0.4c0.5-0.6,0.6-1.5,0.1-2.1l-1.5-2   c-0.4-0.5-2.5-0.9-3.1-0.9H26.7l1.3,0.9C30,52.6,32.2,53.6,34.5,54.3z"/><path class="st1" d="M30.1,50.4l-2.4-8.1h2.1c0.3,0,0.7,0.2,0.9,0.4l6.3,7.7"/><polyline class="st1" points="50.6,56.1 51.6,57.7 58.3,57.7 57.8,56.1  "/><g><g><line class="st2" x1="41.8" y1="52.4" x2="42.8" y2="52.4"/><line class="st3" x1="44.8" y1="52.4" x2="63.8" y2="52.4"/><line class="st2" x1="64.8" y1="52.4" x2="65.8" y2="52.4"/></g></g><path class="st1" d="M70,51v1.2c0,0.6,0.5,1,1,1h1.3"/></g><text x="0" y="115" fill="#000000" font-size="5px" font-weight="bold" font-family="'Helvetica Neue', Helvetica, Arial-Unicode, Arial, Sans-serif">Created by Muhammad Anis</text><text x="0" y="120" fill="#000000" font-size="5px" font-weight="bold" font-family="'Helvetica Neue', Helvetica, Arial-Unicode, Arial, Sans-serif">from the Noun Project</text></svg>