<?xml version="1.0" encoding="utf-8"?>
<!-- Generator: Adobe Illustrator 21.1.0, SVG Export Plug-In . SVG Version: 6.00 Build 0)  -->
<svg version="1.1" id="Layer_1" xmlns="http://www.w3.org/2000/svg" xmlns:xlink="http://www.w3.org/1999/xlink" x="0px" y="0px"
	 viewBox="0 0 116 118" style="enable-background:new 0 0 116 118;" xml:space="preserve">
<style type="text/css">
	.st0{fill:#333333;}
</style>
<path class="st0" d="M58.2,4.3C28.1,4.3,3.6,28.7,3.6,58.8s24.4,54.5,54.5,54.5s54.5-24.4,54.5-54.5S88.3,4.3,58.2,4.3z M34.8,72.8
	c-9.9,0-17.9-8-17.9-17.9c0-0.5,0-0.9,0.1-1.4h35.6c0,0.4,0.1,0.9,0.1,1.4C52.6,64.8,44.6,72.8,34.8,72.8z M81.4,72.8
	c-9.9,0-17.9-8-17.9-17.9c0-0.5,0-0.9,0.1-1.4h35.6c0,0.4,0.1,0.9,0.1,1.4C99.3,64.8,91.3,72.8,81.4,72.8z"/>
<circle class="st0" cx="29.3" cy="50.6" r="9.5"/>
<circle class="st0" cx="77.2" cy="50.6" r="9.5"/>
</svg>
