<?xml version="1.0" encoding="utf-8"?>
<!-- Generator: Adobe Illustrator 21.1.0, SVG Export Plug-In . SVG Version: 6.00 Build 0)  -->
<svg version="1.1" id="Layer_1" xmlns="http://www.w3.org/2000/svg" xmlns:xlink="http://www.w3.org/1999/xlink" x="0px" y="0px"
	 viewBox="0 0 100 100" style="enable-background:new 0 0 100 100;" xml:space="preserve">
<style type="text/css">
	.st0{fill:none;stroke:#E24747;stroke-linecap:round;stroke-linejoin:round;stroke-miterlimit:10;}
</style>
<g>
	<path class="st0" d="M77.7,26.4h3.9c4.2,0,7.7,3.5,7.7,7.7v28.2"/>
	<line class="st0" x1="69.5" y1="26.4" x2="71.8" y2="26.4"/>
	<path class="st0" d="M10,56.6V34.1c0-4.2,3.5-7.7,7.7-7.7H66"/>
	<line class="st0" x1="10" y1="62.2" x2="10" y2="59.4"/>
	<path class="st0" d="M27.1,33.2h-8.9c-1.7,0-3,1.3-3,3v13.6c0,1.7,1.3,3,3,3h15.3V33.2h-3.7"/>
	<polyline class="st0" points="43.7,52.8 53.3,52.8 53.3,33.2 37.3,33.2 37.3,52.8 40,52.8 	"/>
	<path class="st0" d="M56.8,39.3v13.5h16V36.4c0-1.7-1.3-3.1-3.1-3.1H56.8V36"/>
	<path class="st0" d="M79.1,41.5v8.7c0,1.3,1.1,2.6,2.6,2.6h7.6V33.2h-7.6c-1.3,0-2.6,1.1-2.6,2.6v2.4"/>
	<line class="st0" x1="89.3" y1="57.6" x2="86" y2="57.6"/>
	<circle class="st0" cx="22.5" cy="67" r="6.6"/>
	<circle class="st0" cx="74.3" cy="67" r="6.6"/>
	<g>
		<path class="st0" d="M60.3,65.3h4.6c0.2-1.1,0.6-2,1.1-3.1H41.7"/>
		<path class="st0" d="M39.3,62.2h-8.5c0.6,0.9,0.9,2,1.1,3.1h24.9"/>
		<path class="st0" d="M90.4,62.2h-7.9c0.6,0.9,0.9,2,1.1,3.1h6.8c0.9,0,1.5-0.7,1.5-1.5S91.1,62.2,90.4,62.2z"/>
		<path class="st0" d="M14.4,62.2H8.5c-0.9,0-1.5,0.7-1.5,1.5c0,0.7,0.7,1.5,1.5,1.5h4.8C13.5,64.2,13.8,63.1,14.4,62.2z"/>
	</g>
	<path class="st0" d="M14.4,62.2c1.7-2.8,4.6-4.8,8.1-4.8s6.6,1.8,8.1,4.8"/>
	<path class="st0" d="M66,62.2c1.7-2.8,4.6-4.8,8.1-4.8c3.5,0,6.6,1.8,8.1,4.8"/>
</g>
</svg>
