<svg xmlns="http://www.w3.org/2000/svg" xmlns:xlink="http://www.w3.org/1999/xlink" version="1.1" x="0px" y="0px" viewBox="0 0 100 125" style="enable-background:new 0 0 100 100;" xml:space="preserve"><style type="text/css">
	.st0{display:none;}
	.st1{fill:none;stroke:#000000;stroke-linecap:round;stroke-linejoin:round;stroke-miterlimit:10;}
	.st2{fill:none;stroke:#000000;stroke-linecap:round;stroke-linejoin:round;}
	.st3{fill:none;stroke:#000000;stroke-linecap:round;stroke-linejoin:round;stroke-dasharray:1.9915,1.9915;}
</style><g><path class="st1" d="M67.6,48.1c-2.7-0.4-6-0.2-6-0.2S59.7,46,58,42c-1.5-3.5-5.2-3.5-5.2-3.5s-1.4,0-3.2,0"/><path class="st1" d="M69.3,48.4c-0.2-0.1-0.4-0.1-0.7-0.2"/><path class="st1" d="M45.7,56.6l11.7,0.1c0.9-2.1,2.9-3.6,5.3-3.6c2.4,0,4.5,1.5,5.3,3.6l0.3,0h4.2v-3.4c-2.4,0.4-2.9-2.1-2.9-2.1   l2.9,0.1c0,0,0-1.2-1.8-2.2"/><path class="st1" d="M27.5,55.4v1l4,0c0.9-2,2.9-3.4,5.2-3.4c2.4,0,4.4,1.4,5.3,3.5l2.1,0"/><line class="st1" x1="27.5" y1="53.1" x2="27.5" y2="53.8"/><path class="st1" d="M48.2,38.5c-3.3,0-7.4,0-8.6,0c-2.1,0-4.9,1-5.2,4.3s-2.5,4.7-4.5,5c-2,0.3-2.3,3.3-2.3,3.3v0.8"/><circle class="st1" cx="36.8" cy="58.3" r="3.2"/><circle class="st1" cx="62.7" cy="58.3" r="3.2"/><line class="st1" x1="27.5" y1="57.8" x2="30.7" y2="57.8"/><line class="st1" x1="69" y1="58.3" x2="72.2" y2="58.3"/><line class="st1" x1="53.6" y1="58.3" x2="56" y2="58.3"/><line class="st1" x1="43.5" y1="58.3" x2="52.1" y2="58.3"/><line class="st1" x1="39.6" y1="50" x2="41.5" y2="50"/><line class="st1" x1="50.6" y1="49.7" x2="52.4" y2="49.7"/><path class="st1" d="M38.6,46.2v1.4h-3.2c0,0,1-6,3.2-6v3.2"/><polyline class="st1" points="42.3,41.1 40.5,41.1 40.5,47.6 47.4,47.6 47.4,41.1 43.7,41.1  "/><path class="st1" d="M56.4,47.6h1.8c0,0-3-6.3-4.3-6.5c-1.4-0.3-4.3,0-4.3,0"/><polyline class="st1" points="49.6,41.1 49.6,47.6 54.7,47.6  "/></g><text x="0" y="115" fill="#000000" font-size="5px" font-weight="bold" font-family="'Helvetica Neue', Helvetica, Arial-Unicode, Arial, Sans-serif">Created by Muhammad Anis</text><text x="0" y="120" fill="#000000" font-size="5px" font-weight="bold" font-family="'Helvetica Neue', Helvetica, Arial-Unicode, Arial, Sans-serif">from the Noun Project</text></svg>