<?xml version="1.0" encoding="utf-8"?>
<!-- Generator: Adobe Illustrator 21.1.0, SVG Export Plug-In . SVG Version: 6.00 Build 0)  -->
<svg version="1.1" id="Layer_1" xmlns="http://www.w3.org/2000/svg" xmlns:xlink="http://www.w3.org/1999/xlink" x="0px" y="0px"
	 viewBox="0 0 298 427" style="enable-background:new 0 0 298 427;" xml:space="preserve">
<style type="text/css">
	.st0{fill:#FFFFFF;}
	.st1{opacity:0.4;fill:#FFFFFF;}
	.st2{opacity:0.2;fill:none;stroke:#FFFFFF;stroke-miterlimit:10;}
</style>
<circle class="st0" cx="-340.4" cy="362.4" r="0.5"/>
<circle class="st0" cx="377.4" cy="302.8" r="1.5"/>
<circle class="st0" cx="-461.5" cy="233.3" r="1.5"/>
<circle class="st0" cx="0" cy="-133.3" r="1.5"/>
<circle class="st0" cx="658.4" cy="161.2" r="1.5"/>
<circle class="st0" cx="-160.4" cy="326.6" r="1.5"/>
<circle class="st0" cx="507.3" cy="146.6" r="0.5"/>
<circle class="st0" cx="69.7" cy="275.3" r="1.5"/>
<circle class="st0" cx="240.4" cy="410" r="1.5"/>
<circle class="st0" cx="278.3" cy="219.3" r="1.5"/>
<circle class="st0" cx="-73.9" cy="160.2" r="1"/>
<circle class="st0" cx="368.2" cy="44" r="0.5"/>
<ellipse transform="matrix(0.7499 -0.6616 0.6616 0.7499 -176.8415 -190.9541)" class="st0" cx="-341" cy="138.4" rx="0.5" ry="0.5"/>
<ellipse transform="matrix(0.7499 -0.6616 0.6616 0.7499 -320.4033 194.5706)" class="st0" cx="97.1" cy="521" rx="1.5" ry="1.5"/>
<ellipse transform="matrix(0.7499 -0.6616 0.6616 0.7499 -40.5106 -107.1023)" class="st0" cx="-161.9" cy="0" rx="1.5" ry="1.5"/>
<ellipse transform="matrix(0.7499 -0.6616 0.6616 0.7499 -38.9242 28.2516)" class="st0" cx="17.9" cy="65.6" rx="1.5" ry="1.5"/>
<ellipse transform="matrix(0.7499 -0.6616 0.6616 0.7499 -213.7522 392.7287)" class="st0" cx="412.5" cy="479.1" rx="1" ry="1"/>
<circle class="st0" cx="215.6" cy="-148.6" r="0.5"/>
<ellipse transform="matrix(0.7499 -0.6616 0.6616 0.7499 -22.6055 -22.0054)" class="st0" cx="-40.4" cy="18.9" rx="0.5" ry="0.5"/>
<ellipse transform="matrix(0.7499 -0.6616 0.6616 0.7499 -158.1063 -369.3496)" class="st0" cx="-567.5" cy="24.4" rx="1.5" ry="1.5"/>
<ellipse transform="matrix(0.7499 -0.6616 0.6616 0.7499 -4.8424 -223.8015)" class="st0" cx="-298.4" cy="-105.5" rx="1" ry="1"/>
<ellipse transform="matrix(0.8332 -0.553 0.553 0.8332 94.8461 341.155)" class="st0" cx="612.9" cy="13.4" rx="0.5" ry="0.5"/>
<ellipse transform="matrix(0.2589 -0.9659 0.9659 0.2589 -90.6974 490.3495)" class="st0" cx="274.2" cy="304.3" rx="0.5" ry="0.5"/>
<ellipse transform="matrix(0.2589 -0.9659 0.9659 0.2589 366.075 422.3687)" class="st0" cx="458.3" cy="-27.4" rx="1.5" ry="1.5"/>
<ellipse transform="matrix(0.2589 -0.9659 0.9659 0.2589 626.233 956.3868)" class="st0" cx="936.4" cy="70.1" rx="1.5" ry="1.5"/>
<ellipse transform="matrix(0.2589 -0.9659 0.9659 0.2589 481.9987 331.9778)" class="st0" cx="457.3" cy="-148.1" rx="1" ry="1"/>
<ellipse transform="matrix(0.2589 -0.9659 0.9659 0.2589 59.4795 733.6556)" class="st0" cx="507.8" cy="328.1" rx="0.5" ry="0.5"/>
<ellipse transform="matrix(0.2589 -0.9659 0.9659 0.2589 312.6844 1056.6235)" class="st0" cx="844.9" cy="324.5" rx="1" ry="1"/>
<g>
	<circle class="st1" cx="106.2" cy="60.1" r="9.8"/>
	<circle class="st1" cx="57.6" cy="158.4" r="6.5"/>
	<circle class="st1" cx="233.3" cy="127.4" r="8.8"/>
	<circle class="st1" cx="227.4" cy="280.6" r="4.4"/>
	<circle class="st1" cx="133.3" cy="343.6" r="4.7"/>
	<circle class="st1" cx="128.6" cy="370.7" r="6"/>
	<polyline class="st2" points="128.6,370.7 133.3,343.6 57.6,158.4 106.2,60.1 233.3,127.4 227.4,280.6 	"/>
	<circle class="st0" cx="57.6" cy="158.4" r="1.5"/>
	<circle class="st0" cx="227.4" cy="280.6" r="1.5"/>
	<circle class="st0" cx="133.3" cy="343.6" r="1.5"/>
	<circle class="st0" cx="128.6" cy="370.7" r="1.5"/>
	<circle class="st0" cx="106.2" cy="60.1" r="1.5"/>
	<circle class="st0" cx="233.3" cy="127.4" r="1.5"/>
</g>
</svg>
