<?xml version="1.0" encoding="utf-8"?>
<!-- Generator: Adobe Illustrator 21.1.0, SVG Export Plug-In . SVG Version: 6.00 Build 0)  -->
<svg version="1.1" id="Layer_1" xmlns="http://www.w3.org/2000/svg" xmlns:xlink="http://www.w3.org/1999/xlink" x="0px" y="0px"
	 viewBox="0 0 359 524" style="enable-background:new 0 0 359 524;" xml:space="preserve">
<style type="text/css">
	.st0{fill:#F2F2F2;}
	.st1{fill:none;stroke:#808080;stroke-miterlimit:10;}
	.st2{fill:none;stroke:#231F20;stroke-width:3;stroke-linecap:round;stroke-linejoin:round;stroke-miterlimit:10;}
	.st3{fill:#231F20;}
	.st4{fill:#FFFFFF;stroke:#231F20;stroke-miterlimit:10;}
	.st5{fill:none;stroke:#231F20;stroke-miterlimit:10;}
</style>
<g>
	<path class="st0" d="M358.5,498.5c0,14.3-11.7,26-26,26h-307c-14.3,0-26-11.7-26-26v-471c0-14.3,11.7-26,26-26h307
		c14.3,0,26,11.7,26,26V498.5z"/>
	<path class="st1" d="M358.5,498.5c0,14.3-11.7,26-26,26h-307c-14.3,0-26-11.7-26-26v-471c0-14.3,11.7-26,26-26h307
		c14.3,0,26,11.7,26,26V498.5z"/>
</g>
<g>
	<path class="st2" d="M146.8,81.4l23.9,0c-6.6-2.8-11.2-9.3-11.2-16.8c0-10.1,8.2-18.3,18.3-18.3c10.1,0,18.3,8.2,18.3,18.3
		c0,7.5-4.6,14-11.1,16.8h23.8"/>
	<polyline class="st2" points="170.7,98.8 146.8,98.7 208.8,98.7 	"/>
</g>
<g>
	<circle class="st3" cx="129" cy="265" r="7"/>
	<circle class="st3" cx="194" cy="265" r="7"/>
	<path class="st3" d="M187.1,144.1C122.3,142.3,68.3,194.2,66.5,260c-0.2,5.6,0.1,11.2,0.7,16.7l0,203.7l29.2-25.1l29.2,25.1
		l29.2-25.1l29.2,25.1l29.2-25.1l29.2,25.1l29.2-25.1l29.2,25.1V272.7c0.2-2.1,0.3-4.2,0.3-6.3C302.9,200.6,251.9,145.9,187.1,144.1
		z M236,288H119v-42h117V288z"/>
	<path class="st4" d="M246.3,248.7l-2.7-5.9l-9.2-12.4l-8.4-6.5l-12.1-10.5l0.3-11.1l-6-7.9l-13.5-12.5l-4.8-0.1l-11.6,5.5l-26,7.5
		l-11.1,5.5l-6.7,18.2l-7,10l-9.2,5.1l-5.7,14.9l-2.8,16.9l-0.4,14.5l-0.5,19.4l-0.4,16l2.6,8.8l12.3,20.7l22.2,24.3l11.2,8.1
		l12.4,0.3l11.4,0.3l12.5-4l12.7-9.3l20.5-18.8l8.9-12.8l5.6-12.9l8-49.7L246.3,248.7z M160.1,269c-0.3,1.5-3.5,0.3-5.7,0.4
		c-2.2,0.1-7.7,0.3-12.5,1.1s-10.7,1.7-17.1-1.6c0,0,1.7-3.3,3.9-5.1c1.3-1.2,4.8-3.8,11.7-4c6.9-0.2,14.5,3.8,15.9,4.8
		C157.6,265.4,160.4,267.4,160.1,269z M212.4,270.3c-5.8,0.4-10.4-1.8-16.4-1.2c-6,0.5-7.1,1-7.7,0.5c0,0,3.3-8.1,15.9-10.1
		c12-1.9,19.4,5.8,19.4,5.8S218.2,269.9,212.4,270.3z"/>
	<path class="st5" d="M191.5,259.3c0,0,5.3-8.1,14.1-8.8c8.8-0.7,13.9,2.9,19.7,8.5"/>
	<path class="st5" d="M191.7,273.6c2.1-0.3,5.6,2.3,7.2,3.1c2.4,1.3,4.6,2.3,10.9,1.9c6.3-0.4,10.9-3.4,10.9-3.4"/>
	<path class="st5" d="M124,262.8c0,0,5.7-6,11-7.9c2.7-1,7.1-2.3,12.6-1c4.6,1.1,9.7,5.7,9.7,5.7"/>
	<path class="st5" d="M128.2,278.1c0,0,8.6,0.9,13.2,0c4.6-0.9,12.3-4.7,12.3-4.7"/>
	<polygon class="st3" points="183.7,249.7 187,245.5 202.4,240.4 210.1,239 218.3,238.1 221.8,239.4 227.7,242.7 234.7,247.3 
		237.5,254 235.3,251.1 229.4,247.1 221.2,245.2 213.8,243.6 212.9,244.9 205,246.7 194,250 188.8,249.5 185,250.1 	"/>
	<polygon class="st3" points="112.9,257.2 114.6,252.6 119.3,246.1 125.2,242.5 131.3,240.1 146.1,241.3 158.7,245.5 162.4,250.3 
		153.1,251.7 137.7,246 126.4,244.9 120.9,249.1 115.9,255.1 114.2,259.7 113.4,263.6 	"/>
	<path class="st5" d="M114.1,302.6c0,0,0.8,6.4,3.1,9.8c2.3,3.4,4.9,6,9.9,6.7c4.9,0.7,12-2.8,12-2.8"/>
	<path class="st5" d="M236,308.2c0,0-3.9,5.4-10.6,7.8c-6.7,2.4-15.3,3.2-17.6,2.8"/>
	<path class="st3" d="M142.2,327.1c0,0,9.2,0.1,11.6-0.4c2.4-0.5,8.9-2.5,8.9-2.5l9,0.9l7.5-0.5l10.9,3.8l8.8,1.8l5.2,1.9l-9-1.6
		l-9.6,1.1l-11.6,1.8l-2.6-0.1l-10.4-1.7l-8.9-1.5l-5.7-2L142.2,327.1z"/>
	<polygon class="st3" points="142.2,327.1 150.6,334.5 160,338.7 172.9,340.6 186.4,339.4 194.6,334.9 204.2,332.1 195.2,330.5 
		174,333.4 152.1,330.2 	"/>
	<path class="st5" d="M156.4,292.9c0,0-3.4,4.4-2.1,7.7c1.3,3.3,2.1,4.9,3.4,5.5c1.3,0.6,3.3-0.4,4.9,2.4s2.9,4.8,5.3,5.5
		c2.4,0.8,4.8,0.6,5.8,0.2c1-0.5,4.7-4.7,5.6-5.4c0.9-0.7,4.8-1.9,6.2-1.2c1.3,0.7,1.6,2.1,3,1.5c1.4-0.7,3-2.6,3.4-4.5
		s0.8-5.4,0.2-8s-1.5-3.5-1.5-3.5"/>
	
		<ellipse transform="matrix(2.746891e-02 -0.9996 0.9996 2.746891e-02 -72.7698 407.6828)" class="st3" cx="173.1" cy="241.2" rx="3.3" ry="3.3"/>
	<path class="st3" d="M122.2,326.6c0,0,2.8,6.8,8.2,12.9"/>
	<path class="st3" d="M171.2,370.9c12.6-0.7,17.2,0.5,17.2,0.5"/>
	<path class="st5" d="M226.1,321.9c0,0-2,12.7-13.4,19.8"/>
</g>
</svg>
