<?xml version="1.0" encoding="utf-8"?>
<!-- Generator: Adobe Illustrator 21.1.0, SVG Export Plug-In . SVG Version: 6.00 Build 0)  -->
<svg version="1.1" id="Layer_1" xmlns="http://www.w3.org/2000/svg" xmlns:xlink="http://www.w3.org/1999/xlink" x="0px" y="0px"
	 viewBox="0 0 359 524" style="enable-background:new 0 0 359 524;" xml:space="preserve">
<style type="text/css">
	.st0{fill:none;}
	.st1{fill:none;stroke:#231F20;stroke-width:0.3;}
	.st2{fill:#F2F2F2;}
	.st3{fill:none;stroke:#808080;stroke-miterlimit:10;}
	.st4{fill:none;stroke:#231F20;stroke-width:3;stroke-linecap:round;stroke-linejoin:round;stroke-miterlimit:10;}
	.st5{fill:#231F20;}
	.st6{fill:#FFFFFF;stroke:#231F20;stroke-miterlimit:10;}
	.st7{fill:url(#SVGID_1_);}
	.st8{fill:none;stroke:#231F20;stroke-miterlimit:10;}
	.st9{fill:#FFFFFF;}
</style>
<pattern  width="72" height="72" patternUnits="userSpaceOnUse" id="Hatching" viewBox="3 -74.1 72 72" style="overflow:visible;">
	<g>
		<rect x="3" y="-74.1" class="st0" width="72" height="72"/>
		<g>
			<line class="st1" x1="71" y1="-1.3" x2="72.1" y2="-4.2"/>
			<line class="st1" x1="66.2" y1="-1.1" x2="65.5" y2="-4.4"/>
			<line class="st1" x1="50.9" y1="-0.3" x2="51.1" y2="-3.3"/>
			<line class="st1" x1="35.2" y1="-1.9" x2="33.8" y2="-3.9"/>
			<line class="st1" x1="19" y1="-1.7" x2="20.3" y2="-3.7"/>
			<line class="st1" x1="7.9" y1="-0.4" x2="6.2" y2="-2.7"/>
			<line class="st1" x1="58.5" y1="-0.1" x2="60.5" y2="-3.1"/>
		</g>
		<g>
			<line class="st1" x1="77.8" y1="-50.1" x2="74.8" y2="-50.1"/>
			<line class="st1" x1="76.8" y1="-34.4" x2="74.8" y2="-32.9"/>
		</g>
		<g>
			<line class="st1" x1="8.8" y1="-63.4" x2="6" y2="-61.4"/>
			<line class="st1" x1="7.3" y1="-7.1" x2="5" y2="-5.4"/>
			<line class="st1" x1="76.3" y1="-67.1" x2="73" y2="-66.4"/>
			<line class="st1" x1="75" y1="-55.4" x2="72.5" y2="-53.6"/>
			<line class="st1" x1="77.8" y1="-50.1" x2="74.8" y2="-50.1"/>
			<line class="st1" x1="74.5" y1="-42.6" x2="71.8" y2="-44.4"/>
			<line class="st1" x1="76.8" y1="-34.4" x2="74.8" y2="-32.9"/>
			<line class="st1" x1="74.3" y1="-22.4" x2="71.5" y2="-24.6"/>
			<line class="st1" x1="76.3" y1="-11.4" x2="72" y2="-12.1"/>
			<line class="st1" x1="66.5" y1="-13.1" x2="64.3" y2="-11.4"/>
			<line class="st1" x1="74.8" y1="-29.1" x2="71.8" y2="-29.1"/>
			<line class="st1" x1="61" y1="-56.6" x2="59.1" y2="-59.4"/>
			<line class="st1" x1="31" y1="-58.1" x2="29.4" y2="-60.7"/>
			<line class="st1" x1="46.1" y1="-62.5" x2="47.9" y2="-65.2"/>
			<line class="st1" x1="71" y1="-1.3" x2="72.1" y2="-4.2"/>
			<line class="st1" x1="66.2" y1="-1.1" x2="65.5" y2="-4.4"/>
			<line class="st1" x1="60" y1="-26.1" x2="58.1" y2="-28.9"/>
			<line class="st1" x1="51.7" y1="-54.5" x2="50" y2="-57.1"/>
			<line class="st1" x1="50.9" y1="-0.3" x2="51.1" y2="-3.3"/>
			<line class="st1" x1="43.6" y1="-3.8" x2="45.4" y2="-6.5"/>
			<line class="st1" x1="35.2" y1="-1.9" x2="33.8" y2="-3.9"/>
			<line class="st1" x1="53.3" y1="-33.3" x2="55.7" y2="-36"/>
			<line class="st1" x1="19" y1="-1.7" x2="20.3" y2="-3.7"/>
			<line class="st1" x1="12.3" y1="-3.2" x2="13.2" y2="-7.4"/>
			<line class="st1" x1="7.9" y1="-0.4" x2="6.2" y2="-2.7"/>
			<line class="st1" x1="30.1" y1="-4.1" x2="30.2" y2="-7.1"/>
			<line class="st1" x1="10.3" y1="-68.9" x2="13.8" y2="-67.4"/>
			<line class="st1" x1="7.5" y1="-53.4" x2="7.8" y2="-56.6"/>
			<line class="st1" x1="11" y1="-30.4" x2="12.5" y2="-26.6"/>
			<line class="st1" x1="8.3" y1="-35.9" x2="10.5" y2="-39.6"/>
			<line class="st1" x1="32.3" y1="-69.6" x2="30" y2="-67.1"/>
			<line class="st1" x1="36.5" y1="-69.6" x2="39.8" y2="-66.9"/>
			<line class="st1" x1="53.3" y1="-69.6" x2="56.5" y2="-67.6"/>
			<line class="st1" x1="55.5" y1="-63.6" x2="53.5" y2="-60.4"/>
			<line class="st1" x1="62.5" y1="-64.9" x2="67.5" y2="-67.1"/>
			<line class="st1" x1="70" y1="-61.4" x2="67.5" y2="-59.6"/>
			<line class="st1" x1="21.8" y1="-69.4" x2="21.8" y2="-66.4"/>
			<line class="st1" x1="18.8" y1="-64.4" x2="15.5" y2="-63.9"/>
			<line class="st1" x1="23" y1="-59.9" x2="23.5" y2="-56.6"/>
			<line class="st1" x1="24" y1="-64.4" x2="27.5" y2="-65.1"/>
			<line class="st1" x1="12.3" y1="-52.6" x2="15" y2="-54.6"/>
			<line class="st1" x1="10.5" y1="-10.1" x2="10.8" y2="-14.1"/>
			<line class="st1" x1="10.3" y1="-18.4" x2="12.5" y2="-20.9"/>
			<line class="st1" x1="24.3" y1="-8.4" x2="21.8" y2="-11.9"/>
			<line class="st1" x1="32.8" y1="-45.6" x2="30.3" y2="-43.9"/>
			<line class="st1" x1="60.8" y1="-40.4" x2="58" y2="-41.9"/>
			<line class="st1" x1="29.8" y1="-34.1" x2="26" y2="-34.9"/>
			<line class="st1" x1="34.5" y1="-24.6" x2="32.5" y2="-23.1"/>
			<line class="st1" x1="32" y1="-12.6" x2="29.3" y2="-14.9"/>
			<line class="st1" x1="35.3" y1="-8.4" x2="33.3" y2="-9.6"/>
			<line class="st1" x1="32.5" y1="-19.4" x2="29.5" y2="-19.4"/>
			<line class="st1" x1="42.8" y1="-55.1" x2="40.3" y2="-53.4"/>
			<line class="st1" x1="45.5" y1="-49.9" x2="42.5" y2="-49.9"/>
			<line class="st1" x1="42.3" y1="-42.4" x2="39.5" y2="-44.1"/>
			<line class="st1" x1="41.5" y1="-31.6" x2="40.8" y2="-29.1"/>
			<line class="st1" x1="42" y1="-22.1" x2="39.3" y2="-24.4"/>
			<line class="st1" x1="42.5" y1="-14.1" x2="40.5" y2="-15.4"/>
			<line class="st1" x1="66" y1="-29.6" x2="63" y2="-29.6"/>
			<line class="st1" x1="25.3" y1="-31.1" x2="27.8" y2="-29.4"/>
			<line class="st1" x1="30" y1="-53.6" x2="33" y2="-53.6"/>
			<line class="st1" x1="17.8" y1="-39.4" x2="20.3" y2="-37.6"/>
			<line class="st1" x1="15" y1="-34.1" x2="18" y2="-34.1"/>
			<line class="st1" x1="18.3" y1="-26.6" x2="21" y2="-28.4"/>
			<line class="st1" x1="50.3" y1="-41.1" x2="52.7" y2="-42.7"/>
			<line class="st1" x1="50.6" y1="-48.6" x2="53" y2="-46.8"/>
			<line class="st1" x1="57.7" y1="-52.6" x2="57.5" y2="-49.6"/>
			<line class="st1" x1="48.4" y1="-8.5" x2="51.4" y2="-8.4"/>
			<line class="st1" x1="49.4" y1="-14.4" x2="51.7" y2="-12.6"/>
			<line class="st1" x1="56.5" y1="-18.4" x2="57.6" y2="-15.3"/>
			<line class="st1" x1="51.3" y1="-30.6" x2="48.8" y2="-28.9"/>
			<line class="st1" x1="51" y1="-23.1" x2="47.8" y2="-24.1"/>
			<line class="st1" x1="60" y1="-7.6" x2="57.3" y2="-9.4"/>
			<line class="st1" x1="67.5" y1="-33.1" x2="64.8" y2="-34.9"/>
			<line class="st1" x1="65.3" y1="-22.1" x2="63.3" y2="-20.6"/>
			<line class="st1" x1="22.6" y1="-44.5" x2="25.7" y2="-44.4"/>
			<line class="st1" x1="23.6" y1="-50.4" x2="26" y2="-48.6"/>
			<line class="st1" x1="60.8" y1="-45.6" x2="63.5" y2="-45.1"/>
			<line class="st1" x1="18" y1="-18.4" x2="18.5" y2="-15.1"/>
			<line class="st1" x1="20" y1="-20.4" x2="23.5" y2="-21.1"/>
			<line class="st1" x1="35.8" y1="-61.4" x2="39.8" y2="-60.6"/>
			<line class="st1" x1="36.5" y1="-40.6" x2="37" y2="-37.1"/>
			<line class="st1" x1="67.5" y1="-51.1" x2="65" y2="-52.4"/>
			<line class="st1" x1="13" y1="-60.6" x2="16.3" y2="-57.9"/>
			<line class="st1" x1="7.8" y1="-44.6" x2="5.3" y2="-42.9"/>
			<line class="st1" x1="18.8" y1="-50.1" x2="16.8" y2="-48.6"/>
			<line class="st1" x1="44.3" y1="-69.3" x2="46.2" y2="-72"/>
			<line class="st1" x1="67.6" y1="-39" x2="69.4" y2="-41.7"/>
			<line class="st1" x1="36.8" y1="-47.8" x2="37.5" y2="-50.6"/>
			<line class="st1" x1="23.3" y1="-15.3" x2="24" y2="-18.1"/>
			<line class="st1" x1="34.8" y1="-31.4" x2="32.8" y2="-29.9"/>
			<line class="st1" x1="5.8" y1="-50.1" x2="2.8" y2="-50.1"/>
			<line class="st1" x1="4.8" y1="-34.4" x2="2.8" y2="-32.9"/>
			<line class="st1" x1="71" y1="-73.3" x2="72.1" y2="-76.2"/>
			<line class="st1" x1="66.2" y1="-73.1" x2="65.5" y2="-76.4"/>
			<line class="st1" x1="50.9" y1="-72.3" x2="51.1" y2="-75.3"/>
			<line class="st1" x1="35.2" y1="-73.9" x2="33.8" y2="-75.9"/>
			<line class="st1" x1="19" y1="-73.7" x2="20.3" y2="-75.7"/>
			<line class="st1" x1="7.9" y1="-72.4" x2="6.2" y2="-74.7"/>
			<line class="st1" x1="8.3" y1="-22.1" x2="4.5" y2="-22.9"/>
			<line class="st1" x1="71.4" y1="-16.8" x2="69.5" y2="-19.6"/>
			<line class="st1" x1="27" y1="-38.1" x2="27.7" y2="-40.9"/>
			<line class="st1" x1="47.8" y1="-37.1" x2="45.8" y2="-35.6"/>
			<line class="st1" x1="58.5" y1="-72.1" x2="60.5" y2="-75.1"/>
			<line class="st1" x1="58.5" y1="-0.1" x2="60.5" y2="-3.1"/>
		</g>
		<g>
			<line class="st1" x1="4.3" y1="-67.1" x2="1" y2="-66.4"/>
			<line class="st1" x1="3" y1="-55.4" x2="0.5" y2="-53.6"/>
			<line class="st1" x1="5.8" y1="-50.1" x2="2.8" y2="-50.1"/>
			<line class="st1" x1="4.8" y1="-34.4" x2="2.8" y2="-32.9"/>
			<line class="st1" x1="4.3" y1="-11.4" x2="0" y2="-12.1"/>
		</g>
		<g>
			<line class="st1" x1="71" y1="-73.3" x2="72.1" y2="-76.2"/>
			<line class="st1" x1="66.2" y1="-73.1" x2="65.5" y2="-76.4"/>
			<line class="st1" x1="50.9" y1="-72.3" x2="51.1" y2="-75.3"/>
			<line class="st1" x1="35.2" y1="-73.9" x2="33.8" y2="-75.9"/>
			<line class="st1" x1="19" y1="-73.7" x2="20.3" y2="-75.7"/>
			<line class="st1" x1="7.9" y1="-72.4" x2="6.2" y2="-74.7"/>
			<line class="st1" x1="58.5" y1="-72.1" x2="60.5" y2="-75.1"/>
		</g>
	</g>
</pattern>
<g>
	<path class="st2" d="M358.5,498.5c0,14.3-11.7,26-26,26h-307c-14.3,0-26-11.7-26-26v-471c0-14.3,11.7-26,26-26h307
		c14.3,0,26,11.7,26,26V498.5z"/>
	<path class="st3" d="M358.5,498.5c0,14.3-11.7,26-26,26h-307c-14.3,0-26-11.7-26-26v-471c0-14.3,11.7-26,26-26h307
		c14.3,0,26,11.7,26,26V498.5z"/>
</g>
<g>
	<path class="st4" d="M147.3,421.4c15.3,0,10.1,22.3,29.9,22.3s14.5-22.3,29.9-22.3"/>
	<circle class="st4" cx="177.2" cy="462" r="18.3"/>
</g>
<g>
	<path class="st5" d="M103.1,243.1l-3-1.3l-3.9,4.8l-3.5-4.3l-6.4-17.2l3.3,2.3c0,0-0.1-2.8-0.2-7.6c-0.1-4.9-0.3-11.8-0.9-18.9
		c0.1-9.6-0.1-19.4-21.9-14.3c21.2-26,20.9-37.1-14.9-72.6c35.3,13.3,35,2.2,33.9-17.4c0.5-1.2,0.3-11,0.1-19.3
		c-0.4-16.7-0.7-27.8-0.7-27.8l29.8,40.4l35.5-42.3l-4.9,23.9l57-37.5l-6.8,18.3l41.8-12.7l-10.5,18.2l-4.9-24.3l28.9,30.5
		l-0.4-13.7l5.3,29.1l1.6-24.4c0,0,21.1,13.8,21.5,32.4c0.2,9.3,0.5,19.9,5.2,3.4c-4.1,38.8,4.3,54.7,18.3,45.4
		c-16.7,20.8-21.2,38-14.4,59.2c-6.3-2.7-6.1,5.2-6,10.7c0.1,5.6,0.2,8.8,0.2,8.8l3.9-2.5l-12.1,29.2L255.5,267l-30.9-14.9
		L103.1,243.1z"/>
	<g>
		<circle class="st5" cx="157" cy="267" r="7"/>
		<circle class="st5" cx="226" cy="267" r="7"/>
		<g>
			<path class="st6" d="M124.4,204.9c0-0.5,0-1,0.1-1.6C124.3,202.5,124.2,202.5,124.4,204.9z"/>
			<path class="st6" d="M162.7,178.5c0.2,0,0.3,0.1,0.5,0.2C163,178.6,162.8,178.5,162.7,178.5z"/>
			<path class="st6" d="M143.6,191.1c-0.9-0.7-1.6-1.1-2.3-1.3c0.7,0.3,1.4,0.7,2.1,1.2C143.5,191,143.5,191.1,143.6,191.1z"/>
			<path class="st6" d="M251.2,273.9c-0.3-2.7-1.1-5-1.1-5l-0.5-16l1.4-7.7l-0.7-18.4l-1.7-7.3l-4.9-4.5l-3.4,0.4l-9.5-12.5
				l-9.3-5.6l4.7-1.1l-4-4l-20.2-5.6l-10.9-4.9l-10,2.3l-3,2.1l-9.1-1.8c0,0-7.7-6.1-6.3-5.9c-3.6-0.9-13.2,1.6-5.9,6.6
				c-7.7-5.3-10.9-2.5-7.6,8.1c-2.2-1.1-4.1-1.8-5.6-2.2c1,0.8,2,1.9,3.2,3.5c-1.1-1.5-2.3-2.7-3.4-3.5c-3.1-0.6-4.8,0.4-4.8,2.7
				c-0.2-2.7,0.8-4.4,2.7-3.9c-4.7-1.9-7.8,2.7-4.9,10.6c-3.6-10-11-3-11.9,2.9c0.2,1.4,0.6,4.9,0.6,5.2c0-0.6-5.7-0.7-5.7,0
				c0-0.6-2.7,7.3-2.7,7.3l1.6,11.5l-4.6,12.2c0,0,1.5,15.8,1.3,17.9c-0.2,2.1-1.8,20-1.6,23.6c0.1,3.6,2.8,26.1,3.1,27.5
				c0.3,1.3,4.5,15.4,5.7,17.6c1.2,2.2,8.6,16.6,11.5,19.8c2.8,3.2,9.9,14.5,9.9,14.5s6.6,13.9,10.1,16.6c3.4,2.7,8.6,7.1,11.1,7.3
				c2.5,0.1,11.3,0.6,11.3,0.6s12.6,0,14.8-0.9c2.3-0.9,12.1-3.8,14.5-7.1s8.7-14.2,10.4-16c1.7-1.8,11.5-14.1,12.8-16.2
				c1.3-2,12.9-23.2,13.6-26.5c0.7-3.3,6.3-20,6.8-25.7C249.2,286.9,251.5,276.6,251.2,273.9z M158.8,270c-1.1-0.1-7.8-1.4-13.6-0.3
				c-5.8,1-16.5-2.8-16.5-2.8s2.5-4.8,11.7-6.8s17.7,4.7,19.3,8.4C159.6,268.4,159.9,270.1,158.8,270z M225.4,267.2
				c-1.6,1-9.6,3.6-13.6,3.1c-4-0.5-12.4-2-14.8-1c0,0-1-2.9,1-3.2c1.9-0.4,3.8-1.7,6.2-2.9c2.4-1.2,8.7-4.8,14-3.2
				c5.3,1.6,10.7,4.7,11.7,6.2C229.9,266.2,227.1,266.2,225.4,267.2z"/>
		</g>
		<path class="st6" d="M111.4,255.1c0,0-7.5-12-11.4-13.3c-3.8-1.3-7.2,5.4-7.3,7c-0.1,1.5,5.3,16.8,5.8,18.5
			c0.5,1.7,4.3,16.1,4.3,16.1s0.4,8.5,2.3,10.7c1.9,2.3,6.1,6,8,5.3s3.4-7.3,3.4-7.3L111.4,255.1z"/>
		<path class="st6" d="M252.4,260.9c0,0,7.9-17.2,12.3-18.4c4.4-1.2,7.5,0.6,7.5,0.6s3.9,1.9-0.4,19.3c-4.3,17.4-15.4,32-17.1,33.2
			c-1.6,1.1-6.4,2.9-6.6-2.6s-1.5-8.3-1.5-8.3l5.9-21.2L252.4,260.9z"/>
		
			<pattern  id="SVGID_1_" xlink:href="#Hatching" patternTransform="matrix(0.7571 -1.979765e-02 1.979765e-02 0.7571 -2502.9424 -2653.8677)">
		</pattern>
		<path class="st7" d="M248.8,292.6c0.2-2.1,0.6-4.8,1-7.5c-14.9,42.6-30.3,26-30.3,26c-11.7,6.3-27.2,3.5-29.7,4.2
			s-4.6,3.8-4.6,3.8s-7.8,3.8-10.6,4.5c-2.8,0.7-8.8-5-8.8-5s-16.4,1.1-33.9-4.4c-17.5-5.5-18.6-35.6-18.6-35.7c0,1.1-0.1,2,0,2.5
			c0.1,3.6,2.8,26.1,3.1,27.5c0.3,1.3,4.5,15.4,5.7,17.6c1.2,2.2,8.6,16.6,11.5,19.8c2.8,3.2,9.9,14.5,9.9,14.5s6.6,13.9,10.1,16.6
			c3.4,2.7,8.6,7.1,11.1,7.3S176,385,176,385s12.6,0,14.8-0.9c2.3-0.9,12.1-3.8,14.5-7.1c2.4-3.3,8.7-14.2,10.4-16
			c1.7-1.8,11.5-14.1,12.8-16.2c1.3-2,12.9-23.2,13.6-26.5C242.7,315,248.3,298.3,248.8,292.6z"/>
		<path class="st8" d="M152.9,296.9c0,0-2.2,7.1-0.3,10.9c1.9,3.8,7.8,6.6,7.8,6.6s4.2,3.2,5.5,4.3s6.1,5.3,8.8,5
			c2.7-0.3,9.3-3.3,10.6-4.5c1.3-1.2,3.4-3.4,4.6-3.8c1.1-0.4,5.4-1.4,6.7-2.5c1.3-1.1,3.9-5.5,3.8-8c-0.1-2.5-0.6-6.1-0.6-6.1"/>
		<path class="st5" d="M143,323.5c0,0,6.5,3.5,8.6,4.1s13.1,1.4,14.7,1.7s6.8,0.5,7.7,0.9s2.4,1.2,2.4,1.2s3.6-1.8,4.7-2
			s21.5-3.2,23.3-3.6s7.7-2.5,7.7-2.5l-0.7,1.6c0,0-24.9,6.9-27.4,7.4s-7.2,1.6-7.2,1.6s-8.5-1-10.4-1.2c-1.9-0.2-11.2-2.3-12.4-2.6
			S145.7,325.5,143,323.5z"/>
		<path class="st5" d="M143,323.5l5.4,3.6c0,0,5.9,4.9,7.3,6.3c1.4,1.4,4.7,3.1,6.6,4.4c1.8,1.3,3.7,2.7,3.7,2.7s8.1,1,10.1,1.3
			c1.9,0.3,4.1,0.3,4.9,0.1c0.7-0.2,8.8-3.6,10.5-4.4s6.1-4.2,8-5.1s7.5-6.5,8.7-6.8c1.2-0.3,3.1-0.8,3.1-0.8s-4.1,4.4-4.5,4.8
			c-0.4,0.4-2.6,7.7-4.2,10.1c-1.6,2.4-9.4,10.7-12.4,11.8c-3,1.1-12.7,3.2-21.6,1.9c-9-1.2-14.8-13-15.4-15c-0.6-2-3-8-3.9-8.9
			S143,323.5,143,323.5z"/>
		<path class="st5" d="M131.9,314.3c0,0-1.9,5.5,2,8.7c0,0-4.5-2.6-4.3-6.5C129.7,316.6,129.8,315.3,131.9,314.3z"/>
		<path class="st5" d="M215.2,318.7c0,0,3.2,0.4,3.5,2.6C218.7,321.3,217.4,319.5,215.2,318.7z"/>
		<path class="st8" d="M151.1,296c0,0-6.2,9.6-17.1,14.3"/>
		<path class="st8" d="M225.9,315.1c-9.8-5.4-17.3-13.3-19.2-15.5s-2.8-2.2-4.6-1.8"/>
		<path class="st8" d="M128.5,271.4c0,0,8.5,6.6,14.4,6.7c5.9,0.1,12.2-4,12.2-4"/>
		<path class="st8" d="M158.3,262.3c0,0-4.9-6-11.5-6.7s-14.2,0.6-19.4,5.6"/>
		<path class="st5" d="M117.8,251.8c0,0,2.5-1.5,5.7-2.2c3.3-0.7,18.5,3,18.5,3s12.2,4.4,15.5,6.7c3.3,2.4,8.6,6.4,8.6,6.4l4.7-10.7
			l-2-8.7l-2.6,1l-4,6.3l0.8-3.4l-5.9-3.4l-24.7-2.8l-9.7-3.2l-5.7,8L117.8,251.8z"/>
		<polygon class="st5" points="190.8,248.1 187.8,251.5 188.7,255.5 191,260.1 197.5,255.8 207.4,252 223,250 235.8,249.9 
			245.3,253.9 242.9,243.2 239.3,238.5 226.6,241.4 192.6,249.1 194,253.2 		"/>
		<path class="st8" d="M201.1,274.9c0,0,9.6,4.1,14.8,3.5c5.1-0.7,12.5-3.9,15.5-5.8"/>
		<path class="st8" d="M194.4,264c0,0,7.1-8.5,14-8.9c6.9-0.5,12.5-1.3,24.6,5"/>
		<path class="st5" d="M288.3,191.8c-12.7-20.7-14-24.6,5.4-6.2c-21.9-26.2-23.2-30.1,32.6-33.2c-55.8,3.1-59.4,4.7-72.7,26.5
			c13.3-21.7,13.6-24.9,6.4-84c7.8,52.7,8.1,49.6,3.4-1.5c4.6,51,2.6,42.2-6.8,3.1c9.4,39.1,8.3,42.5-4.1,2.5
			c12.4,40,6.5,38.7-11,10.5c17.6,28.2,20.1,26.5,5-5.6c15.1,32.1,5.4,26.9-8.3,10.3c13.7,16.6,11.4,12.3,0.3-0.5
			c11.1,12.8,7.9,12.4-2.9,5c4.3,6.6,1.1,6.2-2.1,3.5c3.2,2.7,2.2-2.1,0.9-3.1c1.3,1-6.1-0.8-6.2-0.9c0.1,0.1-0.8-4-0.8-4l-2.9-7
			l-3.1,2.8l-1.6-2.3l2.5-5.1l-23.7,5.1l2.5-4l-17.1,4.7l1.4-3.8l-16.7,5.1l0.4-2.8l-14.4,8l-0.6-2.5c0,0-3.7,3.2-7.4,6.4
			c-3.8,3.3-7.5,6.6-2.7,0c-4.8,6.6-5.6,2.8-1.9-2.3c-3.7,5-6.6,8.1-2.2-2c-10.4,16.2-13.3,19.3-4.3-3.6c-9,22.8-9.6,20.1-1.7-1.2
			c-7.9,21.3-10.5,23.7-7.6-4.3c-8.1,32.9-10.7,35.3-14.1-4.3c3.4,39.7,2.6,36.4,0.2,0.1c2.4,36.3-3.1,39.7-18.1-4.5
			c15.1,44.2,11.9,52.6-37.7,12.2c49.6,40.4,44.1,48.8-10.2,56.5c54.3-7.7,50,2.6,20.4,21.1c29.6-18.5,30.6-14.3,14,7.9
			c18.5-13.7,19.4-9.5,10.7,4.5c8.8-13.9,7.3-6.4,3.6,1.2c3.7-7.6,3.7-4.2,2.7,2.2c1,0.4,1,3.8,1,3.9c0-0.1,0.5,5,1,10.2
			c0.5,5.1,1,10.3,1,10.3l2.6,16.4l4.8,11.4l2.7,11.8l2.8,12.3l0,0c0.3-6.2,1.4-19.3,1.6-21.1c0.2-2.1-1.3-17.9-1.3-17.9l4.6-12.2
			l-1.6-11.5c0,0,2.7-8,2.7-7.3c0-0.6,5.7-0.5,5.7,0c0-0.6-1.1-9.8-0.7-3.7c-0.3-6.1,8.1-15.4,12-4.5c-4-10.9,3.4-15.3,10.4-5.9
			c-7-9.5-10.5-3.4-6.5,5c-4-8.4-0.8-11.2,9-6.3c-3.3-10.6-0.1-13.4,7.6-8.1c-7.7-5.3,3.3-7.8,6.4-6.5c-3.1-1.3,5.8,5.7,5.8,5.7
			l9.1,1.8l3-2.1l10-2.3l10.9,4.9l20.2,5.6l4,4l-4.7,1.1l9.3,5.6l9.5,12.5l3.4-0.4l4.9,4.5l1.7,7.3l0.7,18.4l-1.4,7.7l0.5,16
			c0,0,0.9,2.3,1.1,5c0.1,1-0.1,3.1-0.5,5.6l4.8-12.4l3.4-12.1l5.6-8l9.4-5.6l1.3-16.4l0.2-5c0,0,0.6-4.1,1.2-8.2s1.2-8.2,1.3-7.7
			c-0.1-0.5-2.5-0.6-2.4,0.1c-0.1-0.7,0.5-4.3,2.4-3c-0.5-8.3,0.1-11.9,3.4-2.4c-3.3-9.5-7.7-6.7-6.1,1.8c-1.6-8.5-0.9-12.6,4.2-2.4
			c-3.6-18.4-2.9-22.5,6.7-4C276.6,175.7,275.5,171.1,288.3,191.8z"/>
		<path class="st8" d="M152.4,229.8c30.6,2.1,54.8-4.2,54.8-4.2"/>
		<path class="st8" d="M160,219.4c0,0,27.2,5.7,54.8-4.2"/>
		<path class="st8" d="M124.2,322.6c0,0,14.9,20,18.4,29.3"/>
		<path class="st8" d="M234.9,326.9c0,0-17.6,21-20.1,32.3"/>
		<path class="st9" d="M208.2,325.7c-1.2,0.3-6.8,5.9-8.7,6.8c-2,0.9-6.3,4.2-8,5.1c-1.7,0.8-9.8,4.2-10.5,4.4
			c-0.7,0.2-2.9,0.2-4.9-0.1c-1.9-0.3-10.1-1.3-10.1-1.3s-1.9-1.4-3.7-2.7c-1.8-1.3-5.2-3-6.6-4.4c-1.4-1.4-7.3-6.3-7.3-6.3l0,0
			c2.5,1.5,4.8,2.8,5.5,3c1.2,0.4,10.5,2.4,12.4,2.6c1.9,0.2,10.4,1.2,10.4,1.2s4.7-1.1,7.2-1.6c2-0.5,18.1-4.9,24.6-6.7
			C208.4,325.6,208.3,325.6,208.2,325.7z"/>
	</g>
	<path class="st5" d="M278.5,79.2L86,84.3c0,0,0.2,6.6,0.3,11.7c0.3,12.5,0.6,23.5-18.1,5.1c19.2,35.9,19.3,42.5-23.9,25.4
		c43.2,17.1,45.6,17.1,6.1-10.9c48,27.7,54.1,27.6,48.6-18.1c20.2,45.3,29,45.1,51.2,31.1c-3.2,13.4,7.1,13.2,17.7,12.9
		c10.6-0.3,21.4-0.6,31.9-0.8c10.6-0.3,20.9-0.5,25.2-2.9c14.6,1.9,23.4,1.6,11.9-21.4c26.3,22.6,32.3,22.5,48.6-25.7
		c-7.8,48-5.4,47.9,23.6,9.4c-29,38.5-29.2,31.9-21.5-9.2c-8.1,23.5-8.4,12.5-8.8-0.9C278.7,85.8,278.5,79.2,278.5,79.2z"/>
</g>
</svg>
