<?xml version="1.0" encoding="utf-8"?>
<!-- Generator: Adobe Illustrator 21.1.0, SVG Export Plug-In . SVG Version: 6.00 Build 0)  -->
<svg version="1.1" id="Layer_1" xmlns="http://www.w3.org/2000/svg" xmlns:xlink="http://www.w3.org/1999/xlink" x="0px" y="0px"
	 viewBox="0 0 298 427" style="enable-background:new 0 0 298 427;" xml:space="preserve">
<style type="text/css">
	.st0{opacity:0.4;}
	.st1{fill:none;stroke:#FFFFFF;stroke-miterlimit:10;}
	.st2{opacity:0.6;fill:#FFFFFF;}
	.st3{fill:#FFFFFF;}
</style>
<g>
	<g class="st0">
		<polyline class="st1" points="17.9,65.6 118.5,218.6 132.4,239.4 151,255 175.3,317 240.4,410 		"/>
		<polyline class="st1" points="102.6,18.9 151.9,147.6 153.9,205.1 153.9,230.3 151,255 		"/>
		<line class="st1" x1="153.9" y1="230.3" x2="278.3" y2="219.3"/>
		<line class="st1" x1="118.5" y1="218.6" x2="153.9" y2="205.1"/>
	</g>
	<circle class="st2" cx="17.9" cy="65.6" r="4.5"/>
	<circle class="st2" cx="102.6" cy="18.9" r="5.5"/>
	<circle class="st2" cx="151.9" cy="147.6" r="3.2"/>
	<circle class="st2" cx="153.9" cy="205.1" r="4.6"/>
	<circle class="st2" cx="118.5" cy="218.6" r="5.8"/>
	<circle class="st2" cx="132.4" cy="239.4" r="2.4"/>
	<circle class="st2" cx="153.9" cy="230.3" r="3"/>
	<circle class="st2" cx="151" cy="255" r="3"/>
	<circle class="st2" cx="278.3" cy="219.3" r="4.1"/>
	<circle class="st2" cx="175.3" cy="317" r="4.6"/>
	<circle class="st2" cx="240.4" cy="410" r="2.5"/>
</g>
<circle class="st3" cx="-340.4" cy="362.4" r="0.5"/>
<circle class="st3" cx="377.4" cy="302.8" r="1.5"/>
<circle class="st3" cx="-461.5" cy="233.3" r="1.5"/>
<circle class="st3" cx="0" cy="-133.3" r="1.5"/>
<circle class="st3" cx="658.4" cy="161.2" r="1.5"/>
<circle class="st3" cx="-160.4" cy="326.6" r="1.5"/>
<circle class="st3" cx="507.3" cy="146.6" r="0.5"/>
<circle class="st3" cx="69.7" cy="275.3" r="1.5"/>
<circle class="st3" cx="240.4" cy="410" r="1.5"/>
<circle class="st3" cx="175.3" cy="317" r="1.5"/>
<circle class="st3" cx="278.3" cy="219.3" r="1.5"/>
<circle class="st3" cx="151" cy="255" r="1.5"/>
<circle class="st3" cx="153.9" cy="230.3" r="1.5"/>
<circle class="st3" cx="132.4" cy="239.4" r="1.5"/>
<circle class="st3" cx="153.9" cy="205.1" r="1.5"/>
<circle class="st3" cx="118.5" cy="218.6" r="1.5"/>
<circle class="st3" cx="-73.9" cy="160.2" r="1"/>
<circle class="st3" cx="368.2" cy="44" r="0.5"/>
<ellipse transform="matrix(0.7499 -0.6616 0.6616 0.7499 -176.8821 -190.9297)" class="st3" cx="-340.9" cy="138.4" rx="0.5" ry="0.5"/>
<ellipse transform="matrix(0.7499 -0.6616 0.6616 0.7499 -320.3909 194.5621)" class="st3" cx="97.1" cy="521" rx="1.5" ry="1.5"/>
<ellipse transform="matrix(0.7499 -0.6616 0.6616 0.7499 -40.4893 -107.0889)" class="st3" cx="-161.9" cy="0" rx="1.5" ry="1.5"/>
<ellipse transform="matrix(0.7499 -0.6616 0.6616 0.7499 -38.9236 28.2523)" class="st3" cx="17.9" cy="65.6" rx="1.5" ry="1.5"/>
<ellipse transform="matrix(0.7499 -0.6616 0.6616 0.7499 12.8299 72.7334)" class="st3" cx="102.6" cy="19.4" rx="1.5" ry="1.5"/>
<ellipse transform="matrix(0.7499 -0.6616 0.6616 0.7499 -213.7325 392.7596)" class="st3" cx="412.5" cy="479" rx="1" ry="1"/>
<circle class="st3" cx="215.6" cy="-148.6" r="0.5"/>
<ellipse transform="matrix(0.7499 -0.6616 0.6616 0.7499 -22.6131 -22.0087)" class="st3" cx="-40.4" cy="18.9" rx="0.5" ry="0.5"/>
<ellipse transform="matrix(0.7499 -0.6616 0.6616 0.7499 -158.0929 -369.3348)" class="st3" cx="-567.5" cy="24.4" rx="1.5" ry="1.5"/>
<ellipse transform="matrix(0.7499 -0.6616 0.6616 0.7499 -4.8298 -223.8037)" class="st3" cx="-298.4" cy="-105.5" rx="1" ry="1"/>
<ellipse transform="matrix(0.8332 -0.553 0.553 0.8332 94.8153 341.1371)" class="st3" cx="612.9" cy="13.4" rx="0.5" ry="0.5"/>
<ellipse transform="matrix(0.8332 -0.553 0.553 0.8332 5.8941 141.7404)" class="st3" cx="237.9" cy="61.1" rx="1.5" ry="1.5"/>
<ellipse transform="matrix(0.8332 -0.553 0.553 0.8332 -56.2812 108.6133)" class="st3" cx="151.9" cy="147.6" rx="1.5" ry="1.5"/>
<ellipse transform="matrix(0.2589 -0.9659 0.9659 0.2589 -90.7164 490.3461)" class="st3" cx="274.2" cy="304.3" rx="0.5" ry="0.5"/>
<ellipse transform="matrix(0.2589 -0.9659 0.9659 0.2589 366.0943 422.3901)" class="st3" cx="458.3" cy="-27.4" rx="1.5" ry="1.5"/>
<ellipse transform="matrix(0.2589 -0.9659 0.9659 0.2589 626.2215 956.4161)" class="st3" cx="936.4" cy="70.1" rx="1.5" ry="1.5"/>
<ellipse transform="matrix(0.2589 -0.9659 0.9659 0.2589 481.9941 331.934)" class="st3" cx="457.3" cy="-148.1" rx="1" ry="1"/>
<ellipse transform="matrix(0.2589 -0.9659 0.9659 0.2589 59.4599 733.6057)" class="st3" cx="507.8" cy="328.1" rx="0.5" ry="0.5"/>
<ellipse transform="matrix(0.2589 -0.9659 0.9659 0.2589 312.6362 1056.5947)" class="st3" cx="844.9" cy="324.6" rx="1" ry="1"/>
</svg>
