<?xml version="1.0" encoding="utf-8"?>
<!-- Generator: Adobe Illustrator 21.1.0, SVG Export Plug-In . SVG Version: 6.00 Build 0)  -->
<svg version="1.1" id="Layer_1" xmlns="http://www.w3.org/2000/svg" xmlns:xlink="http://www.w3.org/1999/xlink" x="0px" y="0px"
	 viewBox="0 0 100 100.6" style="enable-background:new 0 0 100 100.6;" xml:space="preserve">
<g>
	<g>
		<ellipse cx="38.3" cy="27.2" rx="1.1" ry="1.1"/>
		<ellipse cx="60.9" cy="27.2" rx="1.1" ry="1.1"/>
		<path d="M81.2,51.3c-1-3.2-9.5-18.2-11.1-22.3c-1.7-4-6-10.4-6-10.4s0-8,0-10c0-2-1-11-5.4-8c-4.3,3-1.7,16.1-1.7,16.1
			s-2.4-0.9-6.7-0.9c-0.1,0-0.2,0-0.3,0c-0.1,0-0.2,0-0.3,0c-4.3,0-6.7,0.9-6.7,0.9s2.7-13.1-1.7-16.1c-4.3-3-5.4,6-5.4,8s0,10,0,10
			s-4.4,6.4-6,10.4c-1.7,4-10.1,19.1-11.1,22.3c-1,3.2-5.7,13.9-2.7,21.6c1.4,3.7,3.2,4.2,3.9,3.5c1-1,1.8-23.4,4.5-27.9
			c-0.2,3.8-3.7,19.7-3.2,33.4c0.2,6.2,3.3,11.1,4.6,12.5c4.4,4.3,6.7,5.7,6.7,5.7s15.1,0,15.9,0c0.8,0,1.4-1.5,1.4-1.5l0,0l0,0
			c0,0,0.6,1.5,1.4,1.5s15.9,0,15.9,0s2.3-1.3,6.7-5.7c1.4-1.4,4.4-6.2,4.6-12.5c0.6-13.7-3-29.6-3.2-33.4
			c2.7,4.5,3.5,26.9,4.5,27.9c0.7,0.7,2.5,0.2,3.9-3.5C86.8,65.2,82.2,54.5,81.2,51.3z M60.5,24.1c1.8,0,3.3,1.2,3.3,3.2
			s-1,3.2-2.8,3.2c-1.8,0-3.3-1.2-3.3-3.2S58.7,24.1,60.5,24.1z M49.9,25.6c1.8,0,4.4,0.7,4.4,1.6c0,0.9-1.1,1.6-4.4,1.6
			c-3.3,0-4.4-0.7-4.4-1.6C45.6,26.3,47.9,25.6,49.9,25.6z M38.7,24.1c1.8,0,2.8,1.2,2.8,3.2s-1.5,3.2-3.3,3.2
			c-1.8,0-2.8-1.2-2.8-3.2S36.9,24.1,38.7,24.1z M76.4,68.8c0,9.1-6.9,27.8-26.1,28.9c-20.5-2.2-26.6-18.1-26.6-28.9
			c0-16,9.5-28.9,26.6-28.9C66.6,39.8,76.4,52.8,76.4,68.8z"/>
		<path d="M55.6,43.7c-1.9-0.1-3.7,2.1-3.7,2.9c-0.1,0.8,1.6-0.8,3.6-0.7c1.9,0.1,3.4,1.9,3.5,1.1C59,46.3,57.6,43.9,55.6,43.7z"/>
		<path d="M51.7,52.9c-2.1,0-3.9,2.2-3.9,3c0,0.8,1.7-0.9,3.9-0.9c2.1,0,3.8,1.7,3.8,1C55.5,55.3,53.8,53,51.7,52.9z"/>
		<path d="M68.3,51.2c0.2-0.8-0.8-3.4-2.6-3.9c-1.9-0.5-4,1.4-4.2,2.1c-0.2,0.8,1.8-0.5,3.6,0C67,49.9,68.1,52,68.3,51.2z"/>
		<path d="M62.9,54.3C61,54,59.2,56.2,59.1,57c-0.1,0.8,1.7-0.8,3.6-0.5c1.9,0.2,3.3,2.1,3.4,1.3C66.2,56.9,64.9,54.5,62.9,54.3z"/>
		<path d="M71.3,59.5c1.6,0.4,2.5,2.4,2.7,1.7c0.2-0.8-0.5-3.3-2.2-3.8c-1.6-0.4-3.5,1.5-3.7,2.2C68,60.4,69.7,59.1,71.3,59.5z"/>
		<path d="M48.5,46.6c0-0.8-1.8-3-3.7-2.9c-1.9,0.1-3.4,2.5-3.3,3.3c0,0.8,1.5-1,3.5-1.1C46.9,45.8,48.6,47.4,48.5,46.6z"/>
		<path d="M38,49.5c-0.2-0.8-2.3-2.6-4.2-2.1c-1.9,0.5-2.8,3.1-2.6,3.9c0.2,0.8,1.3-1.3,3.2-1.8C36.2,49,38.2,50.2,38,49.5z"/>
		<path d="M38.3,54.7c-1.8,0.6-2.6,3.4-2.3,4.1c0.3,0.7,1.2-1.4,3-2c1.8-0.6,3.9,0.4,3.6-0.3C42.4,55.8,40.2,54.1,38.3,54.7z"/>
		<path d="M28.1,57.4c-1.6,0.4-2.4,3-2.2,3.8c0.2,0.8,1.1-1.2,2.7-1.7c1.6-0.4,3.4,0.9,3.2,0.1C31.7,58.9,29.8,57,28.1,57.4z"/>
	</g>
</g>
</svg>
