<svg xmlns="http://www.w3.org/2000/svg" xmlns:xlink="http://www.w3.org/1999/xlink" version="1.1" x="0px" y="0px" viewBox="0 0 100 125" style="enable-background:new 0 0 100 100;" xml:space="preserve"><style type="text/css">
	.st0{display:none;}
	.st1{fill:none;stroke:#000000;stroke-linecap:round;stroke-linejoin:round;stroke-miterlimit:10;}
	.st2{fill:none;stroke:#000000;stroke-linecap:round;stroke-linejoin:round;}
	.st3{fill:none;stroke:#000000;stroke-linecap:round;stroke-linejoin:round;stroke-dasharray:1.9915,1.9915;}
</style><g><path class="st1" d="M34.1,39.7v-1.7c0-2.7,2.2-4.9,4.9-4.9H53"/><line class="st1" x1="34.1" y1="53.8" x2="34.1" y2="41.1"/><line class="st1" x1="34.1" y1="57.4" x2="34.1" y2="56.2"/><path class="st1" d="M65.9,61.1v1.3c0,1.9-1.5,3.4-3.4,3.4h-25c-1.9,0-3.4-1.5-3.4-3.4v-2.6"/><path class="st1" d="M55.5,33H61c2.7,0,4.9,2.2,4.9,4.9v21.4"/><path class="st1" d="M58.9,33v-2c0-1-0.8-1.8-1.8-1.8h-4.1l0,1.6h-6.3v-1.6h-3.7c-1,0-1.8,0.8-1.8,1.8v2"/><path class="st1" d="M49.2,26.8H54c0.6,0,1.1,0.5,1.1,1.1v1.3"/><path class="st1" d="M44.9,29.2v-1.3c0-0.6,0.5-1.1,1.1-1.1h1.8"/><line class="st1" x1="39.1" y1="65.8" x2="36" y2="73.2"/><line class="st1" x1="60.9" y1="65.8" x2="64" y2="73.2"/><polyline class="st1" points="48.6,40.4 48.6,50.9 40.9,50.9  "/><path class="st1" d="M39.1,50.9h-2.2V39.5c0-1.7,1.3-3,3-3h8.6v1.9"/><path class="st1" d="M54.7,36.5h5.3c1.7,0,3,1.3,3,3v11.3H51.4V36.5h1.8"/><path class="st1" d="M43.8,56.7h-6.9v-2.9h4C42.5,53.8,43.8,55.1,43.8,56.7L43.8,56.7z"/><path class="st1" d="M56.2,56.7h6.9v-2.9h-4C57.5,53.8,56.2,55.1,56.2,56.7L56.2,56.7z"/><path class="st1" d="M39.1,60c0.4,0,21.4,0,21.4,0"/><path class="st1" d="M39.1,63.5c0.4,0,21.4,0,21.4,0"/><polyline class="st1" points="54.7,68.9 59.9,68.9 58.9,65.8  "/><polyline class="st1" points="41.4,65.8 40.1,68.9 51.9,68.9  "/><polyline class="st1" points="42.8,71.7 60.5,71.7 61.2,73.2  "/><polyline class="st1" points="38.4,73.2 39.1,71.7 40.9,71.7  "/><line class="st1" x1="54.3" y1="44.4" x2="57.2" y2="42.2"/><line class="st1" x1="55.1" y1="46.3" x2="54.3" y2="46.9"/><line class="st1" x1="60.9" y1="41.7" x2="56.1" y2="45.5"/><line class="st1" x1="60" y1="44.4" x2="58.5" y2="45.9"/><line class="st1" x1="39.5" y1="44.4" x2="42.3" y2="42.2"/><line class="st1" x1="43.7" y1="43.6" x2="39.5" y2="46.9"/><line class="st1" x1="46" y1="41.7" x2="44.7" y2="42.8"/><line class="st1" x1="45.2" y1="44.4" x2="43.6" y2="45.9"/></g><text x="0" y="115" fill="#000000" font-size="5px" font-weight="bold" font-family="'Helvetica Neue', Helvetica, Arial-Unicode, Arial, Sans-serif">Created by Muhammad Anis</text><text x="0" y="120" fill="#000000" font-size="5px" font-weight="bold" font-family="'Helvetica Neue', Helvetica, Arial-Unicode, Arial, Sans-serif">from the Noun Project</text></svg>